<?xml version="1.0" encoding="UTF-8" standalone="no"?>
<!-- Created with Inkscape (http://www.inkscape.org/) -->

<svg
   width="200"
   height="200"
   viewBox="0 0 52.916665 52.916667"
   version="1.1"
   id="svg1"
   inkscape:version="1.4 (e7c3feb100, 2024-10-09)"
   sodipodi:docname="Gender_Women_Black_Outline.svg"
   xmlns:inkscape="http://www.inkscape.org/namespaces/inkscape"
   xmlns:sodipodi="http://sodipodi.sourceforge.net/DTD/sodipodi-0.dtd"
   xmlns="http://www.w3.org/2000/svg"
   xmlns:svg="http://www.w3.org/2000/svg">
  <sodipodi:namedview
     id="namedview1"
     pagecolor="#ffffff"
     bordercolor="#666666"
     borderopacity="1.0"
     inkscape:showpageshadow="2"
     inkscape:pageopacity="0.0"
     inkscape:pagecheckerboard="0"
     inkscape:deskcolor="#d1d1d1"
     inkscape:document-units="mm"
     inkscape:zoom="1.3808221"
     inkscape:cx="155.34224"
     inkscape:cy="122.02875"
     inkscape:window-width="1920"
     inkscape:window-height="1015"
     inkscape:window-x="0"
     inkscape:window-y="0"
     inkscape:window-maximized="1"
     inkscape:current-layer="layer1" />
  <defs
     id="defs1" />
  <g
     inkscape:label="Layer 1"
     inkscape:groupmode="layer"
     id="layer1">
    <g
       id="g1"
       transform="translate(0.02619003,2.4589051)">
      <path
         id="path317-6"
         d="M 2.9916486,25.319109 C 2.5919505,23.03558 2.4790634,22.769584 4.2828153,22.306741 c 0.7496518,-0.142169 1.5366999,0.290689 2.260248,0.753533 0.8706538,0.555273 1.0156455,0.662869 1.3419667,0.658635 2.487435,0.08714 4.70182,-0.5842 7.445726,-0.629708 1.306335,-0.118533 1.852083,-0.462844 3.720746,-0.625475 l -0.905579,3.722158 c -1.442863,-0.06632 -2.328688,0.03422 -4.776258,-0.155927 -1.557161,-0.121356 -3.6117397,-0.110066 -5.6747831,-0.319616 -0.32385,-0.03316 -1.4054667,0.420158 -2.0118917,0.496006 -1.1493499,0.143227 -2.1674666,0.224719 -2.6913416,-0.887238 z"
         style="fill:none;fill-opacity:1;fill-rule:nonzero;stroke:#000000;stroke-width:1.19062;stroke-linecap:butt;stroke-linejoin:miter;stroke-miterlimit:4;stroke-dasharray:none;stroke-opacity:1"
         inkscape:export-filename="Gender_Men_Black_outline.png"
         inkscape:export-xdpi="29.176746"
         inkscape:export-ydpi="29.176746" />
      <path
         id="path320-7"
         d="m 49.872639,25.319109 c 0.399696,-2.283529 0.512585,-2.549525 -1.291167,-3.012368 -0.748241,-0.142169 -1.5367,0.290689 -2.260248,0.753533 -0.870656,0.555273 -1.014235,0.662869 -1.341966,0.658635 -2.487435,0.08714 -4.701823,-0.5842 -7.445727,-0.629708 -1.306338,-0.118533 -1.852083,-0.462844 -3.720748,-0.625475 l 0.905581,3.722158 c 1.44286,-0.06632 2.328685,0.03422 4.776259,-0.155927 1.55716,-0.121356 3.61315,-0.110066 5.674783,-0.319616 0.32385,-0.03316 1.405466,0.420158 2.011891,0.496006 1.14935,0.143227 2.167819,0.224719 2.691342,-0.887238 z"
         style="fill:none;fill-opacity:1;fill-rule:nonzero;stroke:#000000;stroke-width:1.19062;stroke-linecap:butt;stroke-linejoin:miter;stroke-miterlimit:4;stroke-dasharray:none;stroke-opacity:1" />
      <path
         id="path323-0"
         d="m 21.388656,21.791332 c -0.1778,-0.0028 -0.369358,-0.0013 -0.570442,0.0039 -1.338087,0.03034 -3.084337,0.215193 -4.084814,0.340428 -0.727427,1.959682 -0.201084,3.038475 0.32526,5.112457 2.156883,-0.305858 2.141715,-0.476602 2.305404,2.924175 0.118534,2.62114 0.642409,5.450416 0.627238,7.59601 h 12.881681 c 0.0013,-2.782358 0.526698,-5.483225 0.62724,-7.59601 0.164041,-3.400777 0.14887,-3.230033 2.305401,-2.924175 0.526344,-2.073982 1.05269,-3.152775 0.325261,-5.112457 -1.601259,-0.201083 -4.145137,-0.401108 -5.487459,-0.32667 -1.255535,0.06914 -2.222851,0.135112 -2.144183,0.237067 H 24.365041 C 23.184293,21.883415 22.730623,21.816034 21.388656,21.79134 Z"
         style="fill:#ffffff;fill-opacity:1;fill-rule:nonzero;stroke:#000000;stroke-width:1.19062;stroke-linecap:butt;stroke-linejoin:miter;stroke-miterlimit:4;stroke-dasharray:none;stroke-opacity:1" />
      <path
         style="fill:none;stroke:#000000;stroke-width:1.19062;stroke-linecap:butt;stroke-linejoin:miter;stroke-dasharray:none;stroke-opacity:1"
         d="M 7.4779738,25.714907 C 7.742999,25.473054 7.9858839,24.110625 7.4053087,23.590578"
         id="path3"
         sodipodi:nodetypes="cc" />
      <path
         style="fill:none;stroke:#000000;stroke-width:1.19062;stroke-linecap:butt;stroke-linejoin:miter;stroke-dasharray:none;stroke-opacity:1"
         d="m 45.332842,25.742847 c -0.265026,-0.241853 -0.50791,-1.604282 0.07267,-2.124329"
         id="path3-2"
         sodipodi:nodetypes="cc" />
      <path
         id="path324-2"
         d="m 28.860135,22.447147 c 0,2.541058 -4.855985,2.516362 -4.855985,-0.02082 v -1.580443 l 4.855985,-0.06773 z"
         style="fill:#ffffff;fill-opacity:1;fill-rule:nonzero;stroke:#000000;stroke-width:1.19062;stroke-linecap:butt;stroke-linejoin:miter;stroke-miterlimit:4;stroke-dasharray:none;stroke-opacity:1" />
      <path
         id="path348-2"
         d="m 21.77032,15.612774 c 0,0 -0.575733,0.427213 -0.597958,1.2319 -0.02328,0.803627 0.319617,1.663346 1.299633,1.743427 0,0 0.340432,1.598436 1.570921,2.598915 1.230487,0.999067 2.251779,0.938387 2.616904,0.957792 0.605015,0.03316 3.146073,-0.542925 3.830815,-3.509788 0,0 1.291167,-0.16016 1.41111,-1.208617 0.121357,-1.050218 -0.724958,-1.757185 -0.724958,-1.757185 l -0.03008,-0.917541 c -0.0019,-1.862261 -1.037384,-4.572174 -4.418325,-4.520435 -3.380941,0.05174 -4.83934,1.594273 -4.903735,4.718923 z"
         style="fill:#ffffff;fill-opacity:1;fill-rule:nonzero;stroke:#000000;stroke-width:1.19062;stroke-linecap:butt;stroke-linejoin:miter;stroke-miterlimit:4;stroke-dasharray:none;stroke-opacity:1"
         sodipodi:nodetypes="ccccccccczcc" />
    </g>
  </g>
</svg>
