<?xml version="1.0" encoding="UTF-8" standalone="no"?>
<!-- Created with Inkscape (http://www.inkscape.org/) -->

<svg
   width="200"
   height="200"
   viewBox="0 0 52.916665 52.916667"
   version="1.1"
   id="svg1"
   inkscape:version="1.4 (e7c3feb100, 2024-10-09)"
   sodipodi:docname="Gender_Women_White_Outline_Highlighted.svg"
   inkscape:export-filename="../60px/Gender_Women_White_Outline_Highlighted_60px.png"
   inkscape:export-xdpi="28.799999"
   inkscape:export-ydpi="28.799999"
   xmlns:inkscape="http://www.inkscape.org/namespaces/inkscape"
   xmlns:sodipodi="http://sodipodi.sourceforge.net/DTD/sodipodi-0.dtd"
   xmlns:xlink="http://www.w3.org/1999/xlink"
   xmlns="http://www.w3.org/2000/svg"
   xmlns:svg="http://www.w3.org/2000/svg">
  <sodipodi:namedview
     id="namedview1"
     pagecolor="#000000"
     bordercolor="#666666"
     borderopacity="1.0"
     inkscape:showpageshadow="2"
     inkscape:pageopacity="0.0"
     inkscape:pagecheckerboard="0"
     inkscape:deskcolor="#d1d1d1"
     inkscape:document-units="mm"
     inkscape:zoom="1.3808221"
     inkscape:cx="155.34224"
     inkscape:cy="122.02875"
     inkscape:window-width="1920"
     inkscape:window-height="1015"
     inkscape:window-x="0"
     inkscape:window-y="0"
     inkscape:window-maximized="1"
     inkscape:current-layer="layer1" />
  <defs
     id="defs1">
    <radialGradient
       inkscape:collect="always"
       xlink:href="#linearGradient2"
       id="radialGradient3"
       cx="176.13167"
       cy="171.4247"
       fx="176.13167"
       fy="171.4247"
       r="20.9126"
       gradientUnits="userSpaceOnUse"
       gradientTransform="matrix(0.27435484,0,0,0.27435484,-17.165163,-10.512295)" />
    <linearGradient
       id="linearGradient2"
       inkscape:collect="always">
      <stop
         style="stop-color:#0d9b00;stop-opacity:1;"
         offset="0.80385828"
         id="stop2" />
      <stop
         style="stop-color:#0d9b00;stop-opacity:1;"
         offset="1"
         id="stop3" />
    </linearGradient>
  </defs>
  <g
     inkscape:label="Layer 1"
     inkscape:groupmode="layer"
     id="layer1">
    <path
       id="path317-6-3"
       d="m 3.0178352,27.77802 c -0.3996981,-2.283529 -0.5125853,-2.549525 1.2911666,-3.012369 0.7496519,-0.142168 1.5367,0.29069 2.2602481,0.753534 0.8706538,0.555273 1.0156454,0.662868 1.3419666,0.658635 2.4874355,0.08714 4.7018205,-0.5842 7.4457265,-0.629708 1.306336,-0.118534 1.852084,-0.462844 3.720746,-0.625475 l -0.905579,3.722158 c -1.442863,-0.06632 -2.328688,0.03422 -4.776258,-0.155927 -1.557161,-0.121356 -3.61174,-0.110067 -5.6747836,-0.319617 -0.3238499,-0.03316 -1.4054666,0.420159 -2.0118916,0.496007 -1.14935,0.143227 -2.1674666,0.224718 -2.6913416,-0.887238 z"
       style="fill:#000000;fill-opacity:1;fill-rule:nonzero;stroke:#ffffff;stroke-width:1.19062;stroke-linecap:butt;stroke-linejoin:miter;stroke-miterlimit:4;stroke-dasharray:none;stroke-opacity:1"
       inkscape:export-filename="Gender_Men_White_outline.png"
       inkscape:export-xdpi="29.176746"
       inkscape:export-ydpi="29.176746" />
    <path
       id="path320-7-6"
       d="m 49.898826,27.77802 c 0.399696,-2.283529 0.512585,-2.549525 -1.291166,-3.012369 -0.748242,-0.142168 -1.5367,0.29069 -2.260248,0.753534 -0.870657,0.555273 -1.014236,0.662868 -1.341967,0.658635 -2.487435,0.08714 -4.701823,-0.5842 -7.445727,-0.629708 -1.306338,-0.118534 -1.852083,-0.462844 -3.720748,-0.625475 l 0.905581,3.722158 c 1.442861,-0.06632 2.328686,0.03422 4.776259,-0.155927 1.55716,-0.121356 3.61315,-0.110067 5.674783,-0.319617 0.32385,-0.03316 1.405467,0.420159 2.011892,0.496007 1.14935,0.143227 2.167818,0.224718 2.691341,-0.887238 z"
       style="fill:#000000;fill-opacity:1;fill-rule:nonzero;stroke:#ffffff;stroke-width:1.19062;stroke-linecap:butt;stroke-linejoin:miter;stroke-miterlimit:4;stroke-dasharray:none;stroke-opacity:1" />
    <path
       id="path323-0-1"
       d="m 21.414843,24.250243 c -0.1778,-0.0028 -0.369358,-0.0013 -0.570441,0.0039 -1.338088,0.03034 -3.084338,0.215194 -4.084815,0.340429 -0.727427,1.959682 -0.201083,3.038475 0.32526,5.112457 2.156883,-0.305859 2.141715,-0.476602 2.305405,2.924175 0.118533,2.621139 0.642408,5.450416 0.627237,7.59601 H 32.89917 c 0.0013,-2.782359 0.526698,-5.483225 0.62724,-7.59601 0.164041,-3.400777 0.14887,-3.230034 2.305402,-2.924175 0.526343,-2.073982 1.052689,-3.152775 0.32526,-5.112457 -1.601258,-0.201083 -4.145137,-0.401108 -5.487458,-0.32667 -1.255536,0.06914 -2.222852,0.135112 -2.144184,0.237066 H 24.391228 C 23.21048,24.342326 22.75681,24.274945 21.414843,24.250251 Z"
       style="fill:#000000;fill-opacity:1;fill-rule:nonzero;stroke:#ffffff;stroke-width:1.19062;stroke-linecap:butt;stroke-linejoin:miter;stroke-miterlimit:4;stroke-dasharray:none;stroke-opacity:1" />
    <path
       style="fill:none;stroke:#ffffff;stroke-width:1.19062;stroke-linecap:butt;stroke-linejoin:miter;stroke-dasharray:none;stroke-opacity:1"
       d="m 7.5041604,28.173818 c 0.2650252,-0.241853 0.50791,-1.604282 -0.072665,-2.124329"
       id="path3-6"
       sodipodi:nodetypes="cc" />
    <path
       style="fill:none;stroke:#ffffff;stroke-width:1.19062;stroke-linecap:butt;stroke-linejoin:miter;stroke-dasharray:none;stroke-opacity:1"
       d="m 45.359029,28.201758 c -0.265025,-0.241853 -0.50791,-1.604282 0.07267,-2.124329"
       id="path3-2-1"
       sodipodi:nodetypes="cc" />
    <path
       id="path324-2-5"
       d="m 28.886322,24.906058 c 0,2.541058 -4.855985,2.516362 -4.855985,-0.02082 v -1.580443 l 4.855985,-0.06773 z"
       style="fill:#000000;fill-opacity:1;fill-rule:nonzero;stroke:#ffffff;stroke-width:1.19062;stroke-linecap:butt;stroke-linejoin:miter;stroke-miterlimit:4;stroke-dasharray:none;stroke-opacity:1" />
    <path
       id="path348-2-5"
       d="m 21.796507,18.071685 c 0,0 -0.575733,0.427212 -0.597958,1.2319 -0.02328,0.803627 0.319617,1.663346 1.299633,1.743427 0,0 0.340432,1.598435 1.570922,2.598915 1.230487,0.999066 2.251778,0.938387 2.616903,0.957791 0.605015,0.03316 3.146073,-0.542925 3.830815,-3.509787 0,0 1.291167,-0.160161 1.41111,-1.208617 0.121357,-1.050219 -0.724958,-1.757185 -0.724958,-1.757185 l -0.03008,-0.917541 c -0.0019,-1.862262 -1.037384,-4.572174 -4.418325,-4.520435 -3.380941,0.05174 -4.83934,1.594273 -4.903734,4.718923 z"
       style="fill:#000000;fill-opacity:1;fill-rule:nonzero;stroke:#ffffff;stroke-width:1.19062;stroke-linecap:butt;stroke-linejoin:miter;stroke-miterlimit:4;stroke-dasharray:none;stroke-opacity:1"
       sodipodi:nodetypes="ccccccccczcc" />
    <circle
       style="fill:url(#radialGradient3);stroke:none;stroke-width:0.37869;stroke-linecap:round"
       id="path1-5"
       cx="31.157419"
       cy="36.518906"
       r="5.7374725"
       inkscape:export-filename="Gender_Men_White_outline_highlighted.png"
       inkscape:export-xdpi="29.176746"
       inkscape:export-ydpi="29.176746" />
  </g>
</svg>
