<?xml version="1.0" encoding="UTF-8" standalone="no"?>
<!-- Created with Inkscape (http://www.inkscape.org/) -->

<svg
   width="200"
   height="200"
   viewBox="0 0 52.916665 52.916667"
   version="1.1"
   id="svg1"
   inkscape:version="1.4 (e7c3feb100, 2024-10-09)"
   sodipodi:docname="Gender_Men_White_Outline.svg"
   inkscape:export-filename="../60px/Gender_Men_White_Outline_Highlighted_60px.png"
   inkscape:export-xdpi="28.799999"
   inkscape:export-ydpi="28.799999"
   xmlns:inkscape="http://www.inkscape.org/namespaces/inkscape"
   xmlns:sodipodi="http://sodipodi.sourceforge.net/DTD/sodipodi-0.dtd"
   xmlns:xlink="http://www.w3.org/1999/xlink"
   xmlns="http://www.w3.org/2000/svg"
   xmlns:svg="http://www.w3.org/2000/svg">
  <sodipodi:namedview
     id="namedview1"
     pagecolor="#000000"
     bordercolor="#666666"
     borderopacity="1.0"
     inkscape:showpageshadow="2"
     inkscape:pageopacity="0.0"
     inkscape:pagecheckerboard="0"
     inkscape:deskcolor="#d1d1d1"
     inkscape:document-units="mm"
     inkscape:zoom="1.3808221"
     inkscape:cx="155.34224"
     inkscape:cy="122.02875"
     inkscape:window-width="1920"
     inkscape:window-height="1015"
     inkscape:window-x="0"
     inkscape:window-y="0"
     inkscape:window-maximized="1"
     inkscape:current-layer="layer1"
     showgrid="false" />
  <defs
     id="defs1">
    <radialGradient
       inkscape:collect="always"
       xlink:href="#linearGradient2"
       id="radialGradient3"
       cx="176.13167"
       cy="171.4247"
       fx="176.13167"
       fy="171.4247"
       r="20.9126"
       gradientUnits="userSpaceOnUse"
       gradientTransform="matrix(0.27435484,0,0,0.27435484,-17.139963,-10.739078)" />
    <linearGradient
       id="linearGradient2"
       inkscape:collect="always">
      <stop
         style="stop-color:#0d9b00;stop-opacity:1;"
         offset="0.80385828"
         id="stop2" />
      <stop
         style="stop-color:#0d9b00;stop-opacity:1;"
         offset="1"
         id="stop3" />
    </linearGradient>
  </defs>
  <g
     inkscape:label="Layer 1"
     inkscape:groupmode="layer"
     id="layer1">
    <g
       id="g3"
       transform="matrix(0.26458333,0,0,0.26458333,108.19174,-141.9635)"
       inkscape:export-filename="40px/40px/40px/40px/40px/40px/Gender_Men_White_outline_highlighted_40px.png"
       inkscape:export-xdpi="34.955475"
       inkscape:export-ydpi="34.955475">
      <path
         id="path342-3-0"
         d="m -297.89486,603.7614 c 0,0 34.172,0.90667 37.69333,2.276 1.95334,0.76134 3,2.57867 3.73467,4.08934 0.60933,1.244 -0.46933,3.86933 -1.63067,6.156 -2.93733,5.80666 -11,14.43733 -14.11466,17.26533 -8.03067,7.28667 -15.77067,12.52667 -15.77067,12.52667 l -1.828,-19.33334 c 0,0 5.604,-3.28133 14.636,-8.324 1.504,-0.83866 1.56133,-0.812 3.004,-2.21866 -7.02,1.17733 -19.44267,-5.96267 -27.44267,-3.82267 z"
         style="fill:none;stroke:#ffffff;stroke-width:4.5;stroke-linecap:butt;stroke-linejoin:miter;stroke-miterlimit:4;stroke-dasharray:none;stroke-opacity:1"
         inkscape:export-filename="Gender_Women_White_outline.png"
         inkscape:export-xdpi="29.176746"
         inkscape:export-ydpi="29.176746" />
      <path
         id="path345-6-6"
         d="m -319.93086,603.7614 c 0,0 -34.172,0.90667 -37.692,2.276 -1.95866,0.76134 -3,2.57867 -3.74,4.08934 -0.604,1.244 0.47334,3.86933 1.63067,6.156 2.94267,5.80666 11.004,14.43733 14.11467,17.26533 8.03066,7.28667 15.776,12.52667 15.776,12.52667 l 1.828,-19.33334 c 0,0 -5.604,-3.28133 -14.64134,-8.324 -1.5,-0.83866 -1.56266,-0.812 -3.00533,-2.21866 7.02667,1.17733 19.44267,-5.96267 27.44267,-3.82267 z"
         style="fill:none;stroke:#ffffff;stroke-width:4.5;stroke-linecap:butt;stroke-linejoin:miter;stroke-miterlimit:4;stroke-dasharray:none;stroke-opacity:1" />
      <path
         id="path346-1-3"
         d="m -342.55086,639.66807 c 3.776,3.708 7.86534,3.09333 7.86534,14.828 v 34.38 h 51.46799 v -34.38 c 0,-11.73467 3.792,-11.48933 7.568,-15.19733 0.47867,-6.996 -3.92666,-10.69334 -9.224,-16.07334 -5.43733,1.844 -7.292,2.66667 -10.71866,3.54134 -4.98934,1.26533 -6.18267,2.844 -5.89067,3.21333 l -7.38533,3.40133 -0.0467,0.104 -0.0467,-0.104 -7.38,-3.40133 c 0.28533,-0.36933 -1.584,-2.14533 -6.636,-3.62533 -3.36934,-0.984 -6.84934,-2.14534 -10.01067,-3.09334 -5.12533,3.72934 -9.83867,10.02134 -9.56267,16.40667 z"
         style="fill:#000000;fill-opacity:1;fill-rule:nonzero;stroke:#ffffff;stroke-width:4.5;stroke-linecap:butt;stroke-linejoin:miter;stroke-miterlimit:4;stroke-dasharray:none;stroke-opacity:1" />
      <path
         id="path324-2-4-2"
         d="m -299.60949,630.40683 c 0,9.604 -18.35333,9.51066 -18.35333,-0.0787 v -5.97333 l 18.35333,-0.256 z"
         style="fill:#000000;fill-opacity:1;fill-rule:nonzero;stroke:#ffffff;stroke-width:4.5;stroke-linecap:butt;stroke-linejoin:miter;stroke-miterlimit:4;stroke-dasharray:none;stroke-opacity:1" />
      <path
         id="path348-2-7-0"
         d="m -326.40564,604.57613 c 0,0 -2.176,1.61466 -2.26,4.656 -0.088,3.03733 1.208,6.28666 4.912,6.58933 0,0 1.28667,6.04133 5.93734,9.82267 4.65066,3.776 8.51066,3.54666 9.89066,3.62 2.28667,0.12533 11.89067,-2.052 14.47867,-13.26534 0,0 4.88,-0.60533 5.33333,-4.568 0.45867,-3.96933 -2.74,-6.64133 -2.74,-6.64133 l -0.1137,-3.46787 c -0.007,-7.03847 -3.92082,-17.28066 -16.69918,-17.08511 -12.77836,0.19555 -18.29042,6.0256 -18.5338,17.8353 z"
         style="fill:#000000;fill-opacity:1;fill-rule:nonzero;stroke:#ffffff;stroke-width:4.5;stroke-linecap:butt;stroke-linejoin:miter;stroke-miterlimit:4;stroke-dasharray:none;stroke-opacity:1"
         sodipodi:nodetypes="ccccccccczcc" />
    </g>
    <circle
       style="fill:url(#radialGradient3);stroke:none;stroke-width:0.37869;stroke-linecap:round"
       id="path1-5"
       cx="31.182619"
       cy="36.292122"
       r="5.7374725"
       inkscape:export-filename="Gender_Men_White_outline_highlighted.png"
       inkscape:export-xdpi="29.176746"
       inkscape:export-ydpi="29.176746" />
  </g>
</svg>
