<?xml version="1.0" encoding="UTF-8" standalone="no"?>
<!-- Created with Inkscape (http://www.inkscape.org/) -->

<svg
   width="200"
   height="200"
   viewBox="0 0 52.916665 52.916667"
   version="1.1"
   id="svg1"
   inkscape:version="1.4 (e7c3feb100, 2024-10-09)"
   sodipodi:docname="Gender_Men_White_Outline.svg"
   xmlns:inkscape="http://www.inkscape.org/namespaces/inkscape"
   xmlns:sodipodi="http://sodipodi.sourceforge.net/DTD/sodipodi-0.dtd"
   xmlns="http://www.w3.org/2000/svg"
   xmlns:svg="http://www.w3.org/2000/svg">
  <sodipodi:namedview
     id="namedview1"
     pagecolor="#000000"
     bordercolor="#666666"
     borderopacity="1.0"
     inkscape:showpageshadow="2"
     inkscape:pageopacity="0.0"
     inkscape:pagecheckerboard="0"
     inkscape:deskcolor="#d1d1d1"
     inkscape:document-units="mm"
     inkscape:zoom="1.9527773"
     inkscape:cx="81.166448"
     inkscape:cy="83.214812"
     inkscape:window-width="1920"
     inkscape:window-height="1015"
     inkscape:window-x="0"
     inkscape:window-y="0"
     inkscape:window-maximized="1"
     inkscape:current-layer="layer1" />
  <defs
     id="defs1" />
  <g
     inkscape:label="Layer 1"
     inkscape:groupmode="layer"
     id="layer1">
    <path
       id="path342-3-0"
       d="m 29.373726,17.781702 c 0,0 9.041342,0.23989 9.973027,0.602191 0.516821,0.201438 0.79375,0.682273 0.988131,1.081972 0.161219,0.329141 -0.124177,1.02376 -0.431448,1.628775 -0.777169,1.536345 -2.910417,3.819876 -3.734504,4.568118 -2.124781,1.927931 -4.172656,3.314348 -4.172656,3.314348 l -0.483658,-5.115279 c 0,0 1.482725,-0.868186 3.872441,-2.202392 0.397934,-0.221895 0.413102,-0.214842 0.794809,-0.58702 -1.857375,0.311501 -5.144207,-1.577624 -7.260873,-1.011415 z"
       style="fill:#000000;stroke:#ffffff;stroke-width:1.19062;stroke-linecap:butt;stroke-linejoin:miter;stroke-miterlimit:4;stroke-dasharray:none;stroke-opacity:1"
       inkscape:export-filename="Gender_Women_White_outline.png"
       inkscape:export-xdpi="29.176746"
       inkscape:export-ydpi="29.176746" />
    <path
       id="path345-6-6"
       d="m 23.543368,17.781702 c 0,0 -9.041342,0.23989 -9.972675,0.602191 -0.518229,0.201438 -0.79375,0.682273 -0.989542,1.081972 -0.159808,0.329141 0.125238,1.02376 0.431448,1.628775 0.778582,1.536345 2.911475,3.819876 3.734507,4.568118 2.124778,1.927931 4.174066,3.314348 4.174066,3.314348 l 0.483659,-5.115279 c 0,0 -1.482725,-0.868186 -3.873855,-2.202392 -0.396875,-0.221895 -0.413454,-0.214842 -0.79516,-0.58702 1.85914,0.311501 5.144206,-1.577624 7.260873,-1.011415 z"
       style="fill:#000000;stroke:#ffffff;stroke-width:1.19062;stroke-linecap:butt;stroke-linejoin:miter;stroke-miterlimit:4;stroke-dasharray:none;stroke-opacity:1" />
    <path
       id="path346-1-3"
       d="m 17.558493,27.282008 c 0.999066,0.981075 2.081038,0.818444 2.081038,3.923242 v 9.096375 H 33.257103 V 31.20525 c 0,-3.104798 1.0033,-3.039886 2.002366,-4.020961 0.126649,-1.851024 -1.038928,-2.829279 -2.440516,-4.252737 -1.438627,0.487891 -1.929342,0.705556 -2.835979,0.936979 -1.320096,0.334785 -1.635831,0.752475 -1.558573,0.850194 l -1.954035,0.899935 -0.01236,0.02752 -0.01236,-0.02752 -1.952625,-0.899935 c 0.07549,-0.09772 -0.4191,-0.567619 -1.755775,-0.959202 -0.891471,-0.26035 -1.812221,-0.567621 -2.648657,-0.818446 -1.356077,0.986721 -2.603148,2.651479 -2.530123,4.340931 z"
       style="fill:#000000;fill-opacity:1;fill-rule:nonzero;stroke:#ffffff;stroke-width:1.19062;stroke-linecap:butt;stroke-linejoin:miter;stroke-miterlimit:4;stroke-dasharray:none;stroke-opacity:1" />
    <path
       id="path324-2-4-2"
       d="m 28.920063,24.831638 c 0,2.541059 -4.855985,2.516362 -4.855985,-0.02082 v -1.580444 l 4.855985,-0.06773 z"
       style="fill:#000000;fill-opacity:1;fill-rule:nonzero;stroke:#ffffff;stroke-width:1.19062;stroke-linecap:butt;stroke-linejoin:miter;stroke-miterlimit:4;stroke-dasharray:none;stroke-opacity:1" />
    <path
       id="path348-2-7-0"
       d="m 21.830249,17.997266 c 0,0 -0.575733,0.427212 -0.597958,1.2319 -0.02328,0.803627 0.319616,1.663345 1.299633,1.743427 0,0 0.340431,1.598435 1.570921,2.598914 1.230487,0.999067 2.251779,0.938387 2.616904,0.957792 0.605015,0.03316 3.146073,-0.542925 3.830814,-3.509788 0,0 1.291167,-0.16016 1.411111,-1.208617 0.121356,-1.050218 -0.724959,-1.757185 -0.724959,-1.757185 l -0.03008,-0.91754 c -0.0019,-1.862262 -1.037383,-4.572175 -4.418324,-4.520436 -3.380941,0.05174 -4.839341,1.594274 -4.903735,4.718923 z"
       style="fill:#000000;fill-opacity:1;fill-rule:nonzero;stroke:#ffffff;stroke-width:1.19062;stroke-linecap:butt;stroke-linejoin:miter;stroke-miterlimit:4;stroke-dasharray:none;stroke-opacity:1"
       sodipodi:nodetypes="ccccccccczcc" />
  </g>
</svg>
