<?xml version="1.0" encoding="UTF-8" standalone="no"?>
<!-- Created with Inkscape (http://www.inkscape.org/) -->

<svg
   width="200"
   height="200"
   viewBox="0 0 52.916665 52.916667"
   version="1.1"
   id="svg1"
   inkscape:version="1.4 (e7c3feb100, 2024-10-09)"
   sodipodi:docname="Gender_Women_White_Outline_Highlighted.svg"
   inkscape:export-filename="../60px/Gender_Women_White_Outline_Highlighted_60px.png"
   inkscape:export-xdpi="28.799999"
   inkscape:export-ydpi="28.799999"
   xmlns:inkscape="http://www.inkscape.org/namespaces/inkscape"
   xmlns:sodipodi="http://sodipodi.sourceforge.net/DTD/sodipodi-0.dtd"
   xmlns:xlink="http://www.w3.org/1999/xlink"
   xmlns="http://www.w3.org/2000/svg"
   xmlns:svg="http://www.w3.org/2000/svg">
  <sodipodi:namedview
     id="namedview1"
     pagecolor="#000000"
     bordercolor="#666666"
     borderopacity="1.0"
     inkscape:showpageshadow="2"
     inkscape:pageopacity="0.0"
     inkscape:pagecheckerboard="0"
     inkscape:deskcolor="#d1d1d1"
     inkscape:document-units="mm"
     inkscape:zoom="1.3808221"
     inkscape:cx="155.34224"
     inkscape:cy="122.02875"
     inkscape:window-width="1920"
     inkscape:window-height="1015"
     inkscape:window-x="0"
     inkscape:window-y="0"
     inkscape:window-maximized="1"
     inkscape:current-layer="layer1" />
  <defs
     id="defs1">
    <radialGradient
       inkscape:collect="always"
       xlink:href="#linearGradient2"
       id="radialGradient3"
       cx="176.13167"
       cy="171.4247"
       fx="176.13167"
       fy="171.4247"
       r="20.9126"
       gradientUnits="userSpaceOnUse"
       gradientTransform="matrix(0.27435484,0,0,0.27435484,-17.165163,-10.512295)" />
    <linearGradient
       id="linearGradient2"
       inkscape:collect="always">
      <stop
         style="stop-color:#0d9b00;stop-opacity:1;"
         offset="0.80385828"
         id="stop2" />
      <stop
         style="stop-color:#0d9b00;stop-opacity:1;"
         offset="1"
         id="stop3" />
    </linearGradient>
  </defs>
  <g
     inkscape:label="Layer 1"
     inkscape:groupmode="layer"
     id="layer1">
    <g
       id="g4"
       transform="matrix(0.26458333,0,0,0.26458333,172.10712,-139.48868)"
       inkscape:export-filename="40px/40px/Gender_Women_White_outline_40px.png"
       inkscape:export-xdpi="20.907848"
       inkscape:export-ydpi="20.907848">
      <path
         id="path317-6-3"
         d="m -639.07762,632.18911 c -1.51067,-8.63066 -1.93733,-9.636 4.88,-11.38533 2.83333,-0.53733 5.808,1.09867 8.54267,2.848 3.29066,2.09867 3.83866,2.50533 5.072,2.48933 9.40133,0.32934 17.77066,-2.208 28.14133,-2.38 4.93733,-0.448 7,-1.74933 14.06266,-2.364 l -3.42266,14.068 c -5.45334,-0.25066 -8.80134,0.12934 -18.052,-0.58933 -5.88533,-0.45867 -13.65067,-0.416 -21.448,-1.208 -1.224,-0.12533 -5.312,1.588 -7.604,1.87467 -4.344,0.54133 -8.192,0.84933 -10.172,-3.35334 z"
         style="fill:none;fill-opacity:1;fill-rule:nonzero;stroke:#ffffff;stroke-width:4.5;stroke-linecap:butt;stroke-linejoin:miter;stroke-miterlimit:4;stroke-dasharray:none;stroke-opacity:1"
         inkscape:export-filename="Gender_Men_White_outline.png"
         inkscape:export-xdpi="29.176746"
         inkscape:export-ydpi="29.176746" />
      <path
         id="path320-7-6"
         d="m -461.88962,632.18911 c 1.51066,-8.63066 1.93733,-9.636 -4.88,-11.38533 -2.828,-0.53733 -5.808,1.09867 -8.54267,2.848 -3.29067,2.09867 -3.83333,2.50533 -5.072,2.48933 -9.40133,0.32934 -17.77067,-2.208 -28.14133,-2.38 -4.93734,-0.448 -7,-1.74933 -14.06267,-2.364 l 3.42267,14.068 c 5.45333,-0.25066 8.80133,0.12934 18.052,-0.58933 5.88533,-0.45867 13.656,-0.416 21.448,-1.208 1.224,-0.12533 5.312,1.588 7.604,1.87467 4.344,0.54133 8.19333,0.84933 10.172,-3.35334 z"
         style="fill:none;fill-opacity:1;fill-rule:nonzero;stroke:#ffffff;stroke-width:4.5;stroke-linecap:butt;stroke-linejoin:miter;stroke-miterlimit:4;stroke-dasharray:none;stroke-opacity:1" />
      <path
         id="path323-0-1"
         d="m -569.54562,618.85578 c -0.672,-0.0107 -1.396,-0.005 -2.156,0.0147 -5.05734,0.11466 -11.65734,0.81333 -15.43867,1.28666 -2.74933,7.40667 -0.76,11.484 1.22933,19.32267 8.152,-1.156 8.09467,-1.80133 8.71334,11.052 0.448,9.90667 2.428,20.6 2.37066,28.70933 h 48.68667 c 0.005,-10.516 1.99067,-20.724 2.37067,-28.70933 0.62,-12.85333 0.56266,-12.208 8.71333,-11.052 1.98933,-7.83867 3.97867,-11.916 1.22933,-19.32267 -6.052,-0.76 -15.66666,-1.516 -20.74,-1.23466 -4.74533,0.26133 -8.40133,0.51066 -8.104,0.896 h -15.62533 c -4.46267,-0.61467 -6.17733,-0.86934 -11.24933,-0.96267 z"
         style="fill:#000000;fill-opacity:1;fill-rule:nonzero;stroke:#ffffff;stroke-width:4.5;stroke-linecap:butt;stroke-linejoin:miter;stroke-miterlimit:4;stroke-dasharray:none;stroke-opacity:1" />
      <path
         style="fill:none;stroke:#ffffff;stroke-width:4.5;stroke-linecap:butt;stroke-linejoin:miter;stroke-dasharray:none;stroke-opacity:1"
         d="m -622.12143,633.68504 c 1.00167,-0.91409 1.91966,-6.06343 -0.27464,-8.02896"
         id="path3-6"
         sodipodi:nodetypes="cc" />
      <path
         style="fill:none;stroke:#ffffff;stroke-width:4.5;stroke-linecap:butt;stroke-linejoin:miter;stroke-dasharray:none;stroke-opacity:1"
         d="m -479.04791,633.79064 c -1.00167,-0.91409 -1.91966,-6.06343 0.27464,-8.02896"
         id="path3-2-1"
         sodipodi:nodetypes="cc" />
      <path
         id="path324-2-5"
         d="m -541.30696,621.33445 c 0,9.604 -18.35333,9.51066 -18.35333,-0.0787 v -5.97333 l 18.35333,-0.256 z"
         style="fill:#000000;fill-opacity:1;fill-rule:nonzero;stroke:#ffffff;stroke-width:4.5;stroke-linecap:butt;stroke-linejoin:miter;stroke-miterlimit:4;stroke-dasharray:none;stroke-opacity:1" />
      <path
         id="path348-2-5"
         d="m -568.10311,595.50375 c 0,0 -2.176,1.61466 -2.26,4.656 -0.088,3.03733 1.208,6.28666 4.912,6.58933 0,0 1.28667,6.04133 5.93734,9.82267 4.65066,3.776 8.51066,3.54666 9.89066,3.62 2.28667,0.12533 11.89067,-2.052 14.47867,-13.26534 0,0 4.88,-0.60533 5.33333,-4.568 0.45867,-3.96933 -2.74,-6.64133 -2.74,-6.64133 l -0.1137,-3.46787 c -0.007,-7.03847 -3.92082,-17.28066 -16.69918,-17.08511 -12.77836,0.19555 -18.29042,6.0256 -18.5338,17.8353 z"
         style="fill:#000000;fill-opacity:1;fill-rule:nonzero;stroke:#ffffff;stroke-width:4.5;stroke-linecap:butt;stroke-linejoin:miter;stroke-miterlimit:4;stroke-dasharray:none;stroke-opacity:1"
         sodipodi:nodetypes="ccccccccczcc" />
    </g>
    <circle
       style="fill:url(#radialGradient3);stroke:none;stroke-width:0.37869;stroke-linecap:round"
       id="path1-5"
       cx="31.157419"
       cy="36.518906"
       r="5.7374725"
       inkscape:export-filename="Gender_Men_White_outline_highlighted.png"
       inkscape:export-xdpi="29.176746"
       inkscape:export-ydpi="29.176746" />
  </g>
</svg>
